<!-- Generated by IcoMoon.io -->
<svg version="1.1" xmlns="http://www.w3.org/2000/svg" width="61" height="32" viewBox="0 0 61 32">
<title>os-oslo-logo</title>
<path d="M20.733 7.312l-0.422-0.272c-0.588-0.384-1.265-0.749-1.974-1.055l-0.089-0.034-0.008-0.004c-0.301-0.125-0.61-0.245-0.919-0.351-0.638-0.228-1.401-0.424-2.185-0.552l-0.078-0.011c-0.325-0.051-0.657-0.091-0.986-0.119-0.35-0.031-0.756-0.049-1.167-0.049s-0.817 0.018-1.219 0.052l0.052-0.004c-0.329 0.027-0.661 0.067-0.986 0.119-0.863 0.139-1.625 0.335-2.359 0.591l0.095-0.029c-0.309 0.106-0.617 0.223-0.916 0.349l-0.011 0.004c-0.798 0.341-1.475 0.706-2.116 1.122l0.053-0.032-0.423 0.272-2.099-4 0.364-0.226c0.611-0.387 1.329-0.773 2.074-1.11l0.114-0.046 0.394-0.175 0.754 1.437c0.212-0.086 0.427-0.168 0.643-0.245l-0.387-1.574 0.409-0.131c0.656-0.221 1.464-0.427 2.291-0.576l0.111-0.017 0.421-0.076 0.387 1.574 0.113-0.015c0.188-0.026 0.381-0.048 0.572-0.067v-1.621l0.429-0.029c0.414-0.028 0.83-0.042 1.239-0.042s0.824 0.014 1.236 0.042l0.429 0.029v1.621c0.228 0.023 0.457 0.051 0.684 0.083l0.387-1.574 0.424 0.074c0.938 0.166 1.746 0.372 2.531 0.63l-0.129-0.037 0.409 0.131-0.388 1.576c0.216 0.077 0.431 0.159 0.643 0.245l0.754-1.438 0.394 0.175c0.858 0.383 1.576 0.769 2.263 1.2l-0.075-0.044 0.364 0.226zM4.195 3.649l1.234 2.351c0.492-0.3 1.075-0.6 1.679-0.862l0.095-0.037 0.014-0.006c0.316-0.134 0.645-0.259 0.975-0.375 0.682-0.242 1.496-0.449 2.334-0.585l0.083-0.011c0.348-0.055 0.701-0.098 1.053-0.125 0.373-0.033 0.806-0.052 1.244-0.052s0.871 0.019 1.3 0.055l-0.056-0.004c0.351 0.029 0.705 0.072 1.053 0.125 0.921 0.147 1.735 0.355 2.519 0.628l-0.102-0.031c0.33 0.112 0.659 0.238 0.978 0.375l0.011 0.004c0.699 0.298 1.282 0.599 1.84 0.935l-0.066-0.037 1.234-2.35c-0.429-0.25-0.869-0.484-1.317-0.697l-0.746 1.422-0.392-0.171-0.157-0.067c-0.392-0.166-0.798-0.318-1.206-0.452l-0.405-0.134 0.384-1.558c-0.476-0.14-0.96-0.259-1.447-0.357l-0.384 1.558-0.421-0.068c-0.478-0.081-0.965-0.139-1.447-0.175l-0.427-0.031v-1.606c-0.5-0.021-0.991-0.021-1.49 0v1.604l-0.427 0.031c-0.313 0.023-0.631 0.056-0.943 0.098-0.168 0.023-0.338 0.049-0.505 0.077l-0.421 0.071-0.384-1.558c-0.487 0.098-0.971 0.218-1.447 0.357l0.384 1.558-0.405 0.137c-0.407 0.134-0.813 0.286-1.205 0.452l-0.55 0.236-0.746-1.422c-0.448 0.213-0.889 0.446-1.317 0.696z"></path>
<path d="M12.899 31.625c-7.137-0-12.922-5.785-12.922-12.922s5.785-12.922 12.922-12.922 12.922 5.785 12.922 12.922c0 3.568-1.446 6.799-3.785 9.137v0c-2.326 2.338-5.545 3.784-9.103 3.784-0.012 0-0.024-0-0.036-0h0.002zM12.899 6.745c-0.001 0-0.003 0-0.004 0-6.604 0-11.958 5.354-11.958 11.958s5.354 11.958 11.958 11.958c6.604 0 11.958-5.354 11.958-11.958 0-3.301-1.337-6.289-3.5-8.453l0 0c-2.152-2.165-5.133-3.505-8.426-3.505-0.010 0-0.020 0-0.029 0h0.002z"></path>
<path d="M10.415 15.029c-0.382-0.509-0.612-1.151-0.612-1.846 0-1.708 1.384-3.092 3.092-3.092s3.092 1.384 3.092 3.092c0 0.696-0.23 1.338-0.618 1.854l0.006-0.008 0.681 0.508c0.487-0.649 0.781-1.467 0.781-2.355 0-2.177-1.765-3.942-3.942-3.942s-3.942 1.765-3.942 3.942c0 0.887 0.293 1.706 0.788 2.365l-0.007-0.010z"></path>
<path d="M12.893 15.972c0.851-0.001 1.54-0.691 1.541-1.541v-0.152h0.509v-0.983c0-1.132-0.918-2.049-2.049-2.049s-2.049 0.918-2.049 2.049v0 0.983h0.509v0.152c0.001 0.851 0.69 1.54 1.541 1.541h0zM11.694 13.296c0-0.662 0.537-1.199 1.199-1.199s1.199 0.537 1.199 1.199v0.983h-0.365v0.152c0 0.007 0 0.015 0 0.023 0 0.46-0.373 0.833-0.833 0.833s-0.833-0.373-0.833-0.833c0-0.008 0-0.016 0-0.024l-0 0.001v-0.152h-0.366z"></path>
<path d="M4.070 19.292h1.186v1.186h-1.186v-1.186z"></path>
<path d="M22.444 18.371v0.637h0.608l-1.651 1.651v-2.872l0.423 0.424 0.451-0.451-1.192-1.192-1.199 1.199 0.451 0.451 0.43-0.43v2.869l-1.648-1.648h0.599v-0.637h-1.688v1.696h0.638v-0.608l1.285 1.286h-2.592l-0.27-0.241-0.231-2.112c-0.011-0.115-0.137-1.201-1.041-1.666l-0.021-0.011-0.914-0.348-0.139-0.051-0.14 0.044c-0.006 0-0.605 0.188-1.709 0.188s-1.703-0.184-1.707-0.188l-0.142-0.046-1.054 0.4-0.021 0.011c-0.903 0.464-1.029 1.551-1.040 1.666l-0.239 2.188-0.197 0.166h-0.9c0.078-0.257 0.123-0.553 0.123-0.86 0-1.686-1.367-3.053-3.053-3.053s-3.053 1.367-3.053 3.053c0 1.521 1.112 2.782 2.568 3.015l0.017 0.002 0.039 0.004c0.081 0.011 0.162 0.020 0.245 0.025l3.958 0.399c-0.255 2.3-0.784 3.938-0.789 3.955l0.807 0.264c0.024-0.074 0.568-1.756 0.831-4.164l0.889-0.755-0.135 5.516 0.357 0.066c0.752 0.137 1.618 0.215 2.502 0.215 0.898 0 1.777-0.081 2.63-0.235l-0.089 0.013 0.355-0.067-0.136-5.508 0.895 0.759c0.262 2.406 0.806 4.086 0.83 4.159l0.808-0.264c-0.006-0.017-0.534-1.648-0.789-3.951l3.983-0.371v-1.387l2.117-2.117v0.599h0.637v-1.688zM12.893 17.396c0.928 0 1.546-0.119 1.813-0.188l0.739 0.281c0.494 0.271 0.562 0.972 0.562 0.977l0.183 1.67h-1.025c-0.007 0-0.015 0-0.022 0-0.428 0-0.828-0.12-1.167-0.329l0.010 0.006c-0.264-0.161-0.603-0.554-0.71-0.692l-1.438-1.783c0.315 0.037 0.68 0.059 1.050 0.059 0.002 0 0.004 0 0.006 0h-0zM4.665 22.089c-0.036 0-0.072 0-0.109-0.003l-0.23-0.023c-1.062-0.17-1.863-1.079-1.863-2.176 0-1.216 0.986-2.202 2.202-2.202s2.202 0.986 2.202 2.202c0 1.216-0.986 2.202-2.202 2.202-0.001 0-0.002 0-0.002 0h0zM10.205 21.494l-1.227 1.038-2.434-0.246c0.25-0.197 0.464-0.425 0.64-0.681l0.007-0.010h1.61l1.428-1.201zM10.268 19.251h-0.011v0.009l-0.625 0.526 0.143-1.306v-0.012c0-0.008 0.070-0.707 0.563-0.977l0.405-0.154 0.727 0.902zM12.898 27.578c-0.703-0.001-1.393-0.052-2.069-0.15l0.077 0.009 0.044-1.803 0.144-5.969 0.908-0.762 0.602 0.747c0.063 0.075 0.5 0.625 0.938 0.892 0.351 0.218 0.766 0.368 1.21 0.422l0.015 0.001 0.159 6.466c-0.609 0.092-1.312 0.145-2.027 0.146h-0.001zM20.534 22.191l-3.682 0.343-1.823-1.547c0.044 0 0.089 0.003 0.134 0.003h1.188l0.678 0.606h3.5z"></path>
<path d="M33.045 18.142c0-3.152 1.984-5.082 4.416-5.082s4.416 1.929 4.416 5.082c0 3.261-1.984 5.218-4.416 5.218s-4.416-1.957-4.416-5.218zM40.627 18.142c0-2.717-1.399-3.938-3.166-3.938-1.75 0-3.166 1.223-3.166 3.938s1.454 4.076 3.166 4.076 3.166-1.359 3.166-4.076z"></path>
<path d="M46.083 15.9c1.331 0 2.313 0.584 2.688 1.536l-0.883 0.448c-0.299-0.639-0.951-0.992-1.834-0.992-0.924 0-1.535 0.367-1.535 0.978 0 0.53 0.339 0.843 1.114 1.006l1.046 0.204c1.563 0.313 2.313 1.006 2.313 2.093 0 1.291-1.141 2.174-2.826 2.174-1.468 0-2.514-0.571-3.030-1.631l0.897-0.476c0.367 0.734 1.087 1.128 2.106 1.128 1.032 0 1.726-0.449 1.726-1.128 0-0.598-0.353-0.924-1.182-1.101l-1.236-0.244c-1.332-0.272-2.052-0.951-2.052-1.943 0-1.169 1.101-2.052 2.691-2.052z"></path>
<path d="M52.564 23.306c-1.223 0-1.807-0.75-1.807-1.916v-8.207h1.169v8.152c0 0.625 0.34 0.924 0.911 0.924 0.005 0 0.010 0 0.016 0 0.15 0 0.295-0.020 0.433-0.057l-0.012 0.003v1.006c-0.211 0.055-0.455 0.090-0.706 0.095l-0.003 0z"></path>
<path d="M54.263 19.609c0-2.242 1.468-3.709 3.302-3.709 1.821 0 3.288 1.467 3.288 3.709 0 2.283-1.481 3.75-3.288 3.75-1.821 0.001-3.302-1.467-3.302-3.75zM59.643 19.609c0-1.834-0.951-2.688-2.079-2.688-1.141 0-2.093 0.856-2.093 2.688s0.938 2.731 2.093 2.731c1.141 0 2.079-0.897 2.079-2.731z"></path>
</svg>
